<svg id="Capa_1" enable-background="new 0 0 512 512" height="512" viewBox="0 0 512 512" width="512" xmlns="http://www.w3.org/2000/svg"><path d="m7.5 15.382h497v322.885h-497z" fill="#233952"/><path d="m256 15.38h248.5v322.89h-248.5z" fill="#09213d"/><path d="m60 58.285h392v237.08h-392z" fill="#54a5ff"/><path d="m256 58.285h196v237.08h-196z" fill="#1e8aff"/><path d="m339.698 505.569-167.674.7 41.166-174.199h82.49z" fill="#89c1ff"/><path d="m339.698 505.569-83.698.7v-174.199h39.68l1.57 6.2 14.82 58.4 7.61 30 14.04 55.33z" fill="#54a5ff"/><path d="m125.091 481.996h261.818v30h-261.818z" fill="#bfdcff"/><path d="m386.909 481.996h-261.818v30h261.818z" fill="#bfdcff"/><path d="m256 482h130.91v30h-130.91z" fill="#89c1ff"/><path d="m256 482h130.91v30h-130.91z" fill="#89c1ff"/><path d="m0 0v426.67h512v-426.67zm482 323.65h-452v-293.65h452z" fill="#bfdcff"/><path d="m255.86 0v30h226.14v293.65h-226.14v103.02h256.14v-426.67z" fill="#89c1ff"/><path d="m335.101 239.816v55.264h-158.202v-55.264c0-31.955 25.999-57.955 57.961-57.955h42.28c31.962.001 57.961 26 57.961 57.955z" fill="#ffb739"/><path d="m335.099 239.819v55.261h-79.096v-113.222h21.135c31.961 0 57.961 26 57.961 57.961z" fill="#ff9441"/><path d="m307.241 190.167-51.241 74.837-51.241-74.553c8.828-5.446 19.217-8.589 30.33-8.589h42.281c10.925 0 21.146 3.033 29.871 8.305z" fill="#bfdcff"/><path d="m307.239 190.165-51.239 74.836v-83.141h21.369c10.926.001 21.146 3.035 29.87 8.305z" fill="#89c1ff"/><path d="m315.694 144.96c0 32.96-26.73 59.69-59.69 59.69-32.97 0-59.7-26.73-59.7-59.69 0-14.837-.185-17.593.61-23.12 4.13-28.93 29.01-21.325 59.09-21.325 16.48 0 57.11 8.055 59.03 20.995.857 5.626.66 8.625.66 23.45z" fill="#ffbfab"/><path d="m315.693 144.96c0 32.96-26.73 59.69-59.69 59.69h-.03v-104.135s57.14 8.055 59.06 20.995c.858 5.632.66 8.691.66 23.45z" fill="#fea78c"/><path d="m315.034 121.51c-14.974 6.993-33.59 5.065-46.87-6.28-20.045 17.807-49.298 19.747-71.25 6.61 4.13-28.93 29.01-51.17 59.09-51.17 16.48 0 31.4 6.68 42.2 17.49 8.84 8.83 14.91 20.41 16.83 33.35z" fill="#a24f3d"/><path d="m315.033 121.51c-5.61 2.62-11.9 4.08-18.54 4.08-10.86 0-20.78-3.91-28.33-10.36-3.67 3.26-7.76 6.08-12.19 8.38v-52.94h.03c16.48 0 31.4 6.68 42.2 17.49 8.84 8.83 14.91 20.41 16.83 33.35z" fill="#87402e"/></svg>