<svg id="_x33_0" enable-background="new 0 0 64 64" height="512" viewBox="0 0 64 64" width="512" xmlns="http://www.w3.org/2000/svg"><path d="m47 27v18c0 .55-.45 1-1 1h-12-4-12c-.55 0-1-.45-1-1v-18c0-.55.45-1 1-1h1 6 21c.55 0 1 .45 1 1z" fill="#fcd770"/><path d="m42.12 33.25c.63.75.88 1.75.88 2.75 0 2-1 4-4 4v1c0 .55-.45 1-1 1h-12c-.55 0-1-.45-1-1v-1c-1.5 0-2.5-.5-3.12-1.25-.63-.75-.88-1.75-.88-2.75s.25-2 .88-2.75c.62-.75 1.62-1.25 3.12-1.25v-1c0-.55.45-1 1-1h12c.55 0 1 .45 1 1v1c1.5 0 2.5.5 3.12 1.25z" fill="#ffeaa7"/><path d="m29 34h6v4h-6z" fill="#e6e9ed"/><path d="m30 46h4v4h-4z" fill="#b4dd7f"/><path d="m40 52v2c0 4.59-3.89 8.29-8.55 7.98-4.25-.28-7.45-4.01-7.45-8.26v-1.72c0-1.1.9-2 2-2h4 4 4c1.1 0 2 .9 2 2zm-4 2h-4-4c0 1.1.45 2.1 1.17 2.83.73.72 1.73 1.17 2.83 1.17 2.21 0 4-1.79 4-4z" fill="#a0d468"/><path d="m45 15v2c0 .83-.34 1.58-.88 2.12s-1.29.88-2.12.88c-1.66 0-3-1.34-3-3v-2c0-4.16-3.65-7.49-7.92-6.94-3.53.45-6.08 3.63-6.08 7.18v10.76h-6v-11c0-3.59 1.46-6.84 3.81-9.19s5.6-3.81 9.19-3.81c7.18 0 13 5.82 13 13z" fill="#969faa"/><path d="m28 39h8v-6h-8zm2-4h4v2h-4z"/><path d="m24 35h2v2h-2z"/><path d="m38 35h2v2h-2z"/><path d="m40 31.069v-.069c0-1.103-.897-2-2-2h-12c-1.103 0-2 .897-2 2v.069c-2.927.427-4 2.746-4 4.931s1.073 4.504 4 4.931v.069c0 1.103.897 2 2 2h12c1.103 0 2-.897 2-2v-.069c2.927-.427 4-2.746 4-4.931s-1.073-4.504-4-4.931zm-1 7.931h-1v2h-12v-2h-1c-2.479 0-3-1.632-3-3s.521-3 3-3h1v-2h12v2h1c2.479 0 3 1.632 3 3s-.521 3-3 3z"/><path d="m46 25h-20v-9.756c0-3.149 2.238-5.812 5.206-6.193 1.751-.223 3.439.289 4.752 1.444 1.298 1.142 2.042 2.784 2.042 4.505v2c0 2.206 1.794 4 4 4s4-1.794 4-4v-2c0-7.72-6.281-14-14-14-7.72 0-14 6.28-14 14v10c-1.103 0-2 .897-2 2v18c0 1.103.897 2 2 2h11v2h-3c-1.654 0-3 1.346-3 3v1.718c0 4.879 3.683 8.947 8.385 9.262.209.013.417.02.625.02 2.288 0 4.446-.85 6.133-2.428 1.815-1.697 2.857-4.093 2.857-6.572v-2c0-1.654-1.346-3-3-3h-3v-2h11c1.103 0 2-.897 2-2v-18c0-1.103-.897-2-2-2zm-26-10c0-6.617 5.383-12 12-12s12 5.383 12 12v2c0 1.103-.897 2-2 2s-2-.897-2-2v-2c0-2.296-.992-4.485-2.721-6.007-1.726-1.518-4.033-2.22-6.328-1.926-3.963.509-6.951 4.024-6.951 8.177v9.756h-4zm19 37v2c0 1.928-.811 3.791-2.223 5.112-1.431 1.337-3.302 2.001-5.258 1.871-3.656-.244-6.519-3.435-6.519-7.265v-1.718c0-.552.449-1 1-1h12c.551 0 1 .448 1 1zm-6-3h-2v-2h2zm-15-4v-18h28l.001 18z"/><path d="m32 59c2.757 0 5-2.243 5-5v-1h-10v1c0 2.757 2.243 5 5 5zm2.829-4c-.413 1.164-1.525 2-2.829 2s-2.416-.836-2.829-2z"/></svg>